<mxfile host="app.diagrams.net" modified="2024-02-29T04:56:21.679Z" agent="Mozilla/5.0 (Macintosh; Intel Mac OS X 10_15_7) AppleWebKit/537.36 (KHTML, like Gecko) Chrome/121.0.0.0 Safari/537.36" etag="GtLJiZWK3laT2RyFGu-l" version="23.1.6" type="github">
  <diagram id="C5RBs43oDa-KdzZeNtuy" name="Page-1">
    <mxGraphModel dx="300" dy="644" grid="1" gridSize="10" guides="1" tooltips="1" connect="1" arrows="1" fold="1" page="1" pageScale="1" pageWidth="827" pageHeight="1169" math="0" shadow="0">
      <root>
        <mxCell id="WIyWlLk6GJQsqaUBKTNV-0" />
        <mxCell id="WIyWlLk6GJQsqaUBKTNV-1" parent="WIyWlLk6GJQsqaUBKTNV-0" />
        <mxCell id="I3m5JHci46UFlofUwCae-37" value="" style="rounded=0;html=1;jettySize=auto;orthogonalLoop=1;fontSize=11;endArrow=block;endFill=0;endSize=8;strokeWidth=1;shadow=0;labelBackgroundColor=none;edgeStyle=orthogonalEdgeStyle;" edge="1" parent="WIyWlLk6GJQsqaUBKTNV-1">
          <mxGeometry relative="1" as="geometry">
            <mxPoint x="222" y="628" as="sourcePoint" />
            <mxPoint x="222" y="675" as="targetPoint" />
          </mxGeometry>
        </mxCell>
        <mxCell id="I3m5JHci46UFlofUwCae-39" value="" style="rounded=0;html=1;jettySize=auto;orthogonalLoop=1;fontSize=11;endArrow=block;endFill=0;endSize=8;strokeWidth=1;shadow=0;labelBackgroundColor=none;edgeStyle=orthogonalEdgeStyle;" edge="1" parent="WIyWlLk6GJQsqaUBKTNV-1">
          <mxGeometry relative="1" as="geometry">
            <mxPoint x="222" y="708" as="sourcePoint" />
            <mxPoint x="222" y="755" as="targetPoint" />
          </mxGeometry>
        </mxCell>
        <mxCell id="I3m5JHci46UFlofUwCae-41" value="" style="rounded=0;html=1;jettySize=auto;orthogonalLoop=1;fontSize=11;endArrow=block;endFill=0;endSize=8;strokeWidth=1;shadow=0;labelBackgroundColor=none;edgeStyle=orthogonalEdgeStyle;" edge="1" parent="WIyWlLk6GJQsqaUBKTNV-1">
          <mxGeometry relative="1" as="geometry">
            <mxPoint x="222" y="788" as="sourcePoint" />
            <mxPoint x="222" y="835" as="targetPoint" />
          </mxGeometry>
        </mxCell>
        <mxCell id="I3m5JHci46UFlofUwCae-43" value="" style="rounded=0;html=1;jettySize=auto;orthogonalLoop=1;fontSize=11;endArrow=block;endFill=0;endSize=8;strokeWidth=1;shadow=0;labelBackgroundColor=none;edgeStyle=orthogonalEdgeStyle;" edge="1" parent="WIyWlLk6GJQsqaUBKTNV-1">
          <mxGeometry relative="1" as="geometry">
            <mxPoint x="222" y="868" as="sourcePoint" />
            <mxPoint x="222" y="915" as="targetPoint" />
          </mxGeometry>
        </mxCell>
        <mxCell id="I3m5JHci46UFlofUwCae-18" value="" style="rounded=0;html=1;jettySize=auto;orthogonalLoop=1;fontSize=11;endArrow=block;endFill=0;endSize=8;strokeWidth=1;shadow=0;labelBackgroundColor=none;edgeStyle=orthogonalEdgeStyle;" edge="1" parent="WIyWlLk6GJQsqaUBKTNV-1">
          <mxGeometry relative="1" as="geometry">
            <mxPoint x="222" y="307" as="sourcePoint" />
            <mxPoint x="222" y="354" as="targetPoint" />
          </mxGeometry>
        </mxCell>
        <mxCell id="I3m5JHci46UFlofUwCae-20" value="" style="rounded=0;html=1;jettySize=auto;orthogonalLoop=1;fontSize=11;endArrow=block;endFill=0;endSize=8;strokeWidth=1;shadow=0;labelBackgroundColor=none;edgeStyle=orthogonalEdgeStyle;" edge="1" parent="WIyWlLk6GJQsqaUBKTNV-1">
          <mxGeometry relative="1" as="geometry">
            <mxPoint x="222" y="388" as="sourcePoint" />
            <mxPoint x="222" y="435" as="targetPoint" />
          </mxGeometry>
        </mxCell>
        <mxCell id="I3m5JHci46UFlofUwCae-33" value="" style="rounded=0;html=1;jettySize=auto;orthogonalLoop=1;fontSize=11;endArrow=block;endFill=0;endSize=8;strokeWidth=1;shadow=0;labelBackgroundColor=none;edgeStyle=orthogonalEdgeStyle;" edge="1" parent="WIyWlLk6GJQsqaUBKTNV-1">
          <mxGeometry relative="1" as="geometry">
            <mxPoint x="222" y="468" as="sourcePoint" />
            <mxPoint x="222" y="515" as="targetPoint" />
          </mxGeometry>
        </mxCell>
        <mxCell id="I3m5JHci46UFlofUwCae-35" value="" style="rounded=0;html=1;jettySize=auto;orthogonalLoop=1;fontSize=11;endArrow=block;endFill=0;endSize=8;strokeWidth=1;shadow=0;labelBackgroundColor=none;edgeStyle=orthogonalEdgeStyle;" edge="1" parent="WIyWlLk6GJQsqaUBKTNV-1">
          <mxGeometry relative="1" as="geometry">
            <mxPoint x="222" y="548" as="sourcePoint" />
            <mxPoint x="222" y="595" as="targetPoint" />
          </mxGeometry>
        </mxCell>
        <mxCell id="I3m5JHci46UFlofUwCae-14" value="" style="rounded=0;html=1;jettySize=auto;orthogonalLoop=1;fontSize=11;endArrow=block;endFill=0;endSize=8;strokeWidth=1;shadow=0;labelBackgroundColor=none;edgeStyle=orthogonalEdgeStyle;" edge="1" parent="WIyWlLk6GJQsqaUBKTNV-1">
          <mxGeometry relative="1" as="geometry">
            <mxPoint x="222" y="223" as="sourcePoint" />
            <mxPoint x="222" y="270" as="targetPoint" />
          </mxGeometry>
        </mxCell>
        <mxCell id="I3m5JHci46UFlofUwCae-12" value="" style="rounded=0;html=1;jettySize=auto;orthogonalLoop=1;fontSize=11;endArrow=block;endFill=0;endSize=8;strokeWidth=1;shadow=0;labelBackgroundColor=none;edgeStyle=orthogonalEdgeStyle;" edge="1" parent="WIyWlLk6GJQsqaUBKTNV-1">
          <mxGeometry x="0.6" y="10" relative="1" as="geometry">
            <mxPoint x="509.75" y="130" as="sourcePoint" />
            <mxPoint x="509.75" y="180" as="targetPoint" />
            <mxPoint as="offset" />
          </mxGeometry>
        </mxCell>
        <mxCell id="WIyWlLk6GJQsqaUBKTNV-2" value="" style="rounded=0;html=1;jettySize=auto;orthogonalLoop=1;fontSize=11;endArrow=block;endFill=0;endSize=8;strokeWidth=1;shadow=0;labelBackgroundColor=none;edgeStyle=orthogonalEdgeStyle;" parent="WIyWlLk6GJQsqaUBKTNV-1" edge="1">
          <mxGeometry relative="1" as="geometry">
            <mxPoint x="222" y="133" as="sourcePoint" />
            <mxPoint x="222" y="180" as="targetPoint" />
          </mxGeometry>
        </mxCell>
        <mxCell id="I3m5JHci46UFlofUwCae-8" value="Student" style="text;html=1;align=center;verticalAlign=middle;resizable=0;points=[];autosize=1;strokeColor=none;fillColor=none;" vertex="1" parent="WIyWlLk6GJQsqaUBKTNV-1">
          <mxGeometry x="190" y="10" width="60" height="30" as="geometry" />
        </mxCell>
        <mxCell id="I3m5JHci46UFlofUwCae-9" value="UTS My Student Admin" style="text;html=1;align=center;verticalAlign=middle;resizable=0;points=[];autosize=1;strokeColor=none;fillColor=none;" vertex="1" parent="WIyWlLk6GJQsqaUBKTNV-1">
          <mxGeometry x="430" y="10" width="150" height="30" as="geometry" />
        </mxCell>
        <mxCell id="I3m5JHci46UFlofUwCae-10" value="Log in to UTS My Student Admin" style="strokeWidth=2;html=1;shape=mxgraph.flowchart.terminator;whiteSpace=wrap;" vertex="1" parent="WIyWlLk6GJQsqaUBKTNV-1">
          <mxGeometry x="160" y="90" width="130" height="60" as="geometry" />
        </mxCell>
        <mxCell id="I3m5JHci46UFlofUwCae-11" value="Access the Registration Section" style="rounded=0;whiteSpace=wrap;html=1;" vertex="1" parent="WIyWlLk6GJQsqaUBKTNV-1">
          <mxGeometry x="450" y="90" width="120" height="60" as="geometry" />
        </mxCell>
        <mxCell id="I3m5JHci46UFlofUwCae-13" value="Review Availible Classes and Timetables&amp;nbsp;" style="rounded=0;whiteSpace=wrap;html=1;" vertex="1" parent="WIyWlLk6GJQsqaUBKTNV-1">
          <mxGeometry x="163" y="180" width="120" height="60" as="geometry" />
        </mxCell>
        <mxCell id="I3m5JHci46UFlofUwCae-15" value="Select Preferred Classes" style="rounded=0;whiteSpace=wrap;html=1;" vertex="1" parent="WIyWlLk6GJQsqaUBKTNV-1">
          <mxGeometry x="163" y="270" width="120" height="60" as="geometry" />
        </mxCell>
        <mxCell id="I3m5JHci46UFlofUwCae-17" value="Check Prerequisites and Restrictions" style="rounded=0;whiteSpace=wrap;html=1;" vertex="1" parent="WIyWlLk6GJQsqaUBKTNV-1">
          <mxGeometry x="163" y="354" width="120" height="60" as="geometry" />
        </mxCell>
        <mxCell id="I3m5JHci46UFlofUwCae-19" value="Choose Alternate Classes if Prerequisites Not Met" style="rounded=0;whiteSpace=wrap;html=1;" vertex="1" parent="WIyWlLk6GJQsqaUBKTNV-1">
          <mxGeometry x="163" y="435" width="120" height="60" as="geometry" />
        </mxCell>
        <mxCell id="I3m5JHci46UFlofUwCae-32" value="Enroll in Selected Classes" style="rounded=0;whiteSpace=wrap;html=1;" vertex="1" parent="WIyWlLk6GJQsqaUBKTNV-1">
          <mxGeometry x="163" y="515" width="120" height="60" as="geometry" />
        </mxCell>
        <mxCell id="I3m5JHci46UFlofUwCae-34" value="Confirm Schedule" style="rounded=0;whiteSpace=wrap;html=1;" vertex="1" parent="WIyWlLk6GJQsqaUBKTNV-1">
          <mxGeometry x="163" y="595" width="120" height="60" as="geometry" />
        </mxCell>
        <mxCell id="I3m5JHci46UFlofUwCae-36" value="Check for Registration Errors" style="rounded=0;whiteSpace=wrap;html=1;" vertex="1" parent="WIyWlLk6GJQsqaUBKTNV-1">
          <mxGeometry x="163" y="675" width="120" height="60" as="geometry" />
        </mxCell>
        <mxCell id="I3m5JHci46UFlofUwCae-38" value="Confirm Schedule" style="rounded=0;whiteSpace=wrap;html=1;" vertex="1" parent="WIyWlLk6GJQsqaUBKTNV-1">
          <mxGeometry x="163" y="755" width="120" height="60" as="geometry" />
        </mxCell>
        <mxCell id="I3m5JHci46UFlofUwCae-40" value="Confirm Schedule" style="rounded=0;whiteSpace=wrap;html=1;" vertex="1" parent="WIyWlLk6GJQsqaUBKTNV-1">
          <mxGeometry x="163" y="835" width="120" height="60" as="geometry" />
        </mxCell>
        <mxCell id="I3m5JHci46UFlofUwCae-42" value="Confirm Schedule" style="rounded=0;whiteSpace=wrap;html=1;" vertex="1" parent="WIyWlLk6GJQsqaUBKTNV-1">
          <mxGeometry x="163" y="915" width="120" height="60" as="geometry" />
        </mxCell>
      </root>
    </mxGraphModel>
  </diagram>
</mxfile>
